<svg xmlns="http://www.w3.org/2000/svg" width="73" height="57" viewBox="0 0 73 57">
  <metadata><?xpacket begin="﻿" id="W5M0MpCehiHzreSzNTczkc9d"?>
<x:xmpmeta xmlns:x="adobe:ns:meta/" x:xmptk="Adobe XMP Core 5.6-c142 79.160924, 2017/07/13-01:06:39        ">
   <rdf:RDF xmlns:rdf="http://www.w3.org/1999/02/22-rdf-syntax-ns#">
      <rdf:Description rdf:about=""/>
   </rdf:RDF>
</x:xmpmeta>
                                                                                                    
                                                                                                    
                                                                                                    
                                                                                                    
                                                                                                    
                                                                                                    
                                                                                                    
                                                                                                    
                                                                                                    
                                                                                                    
                                                                                                    
                                                                                                    
                                                                                                    
                                                                                                    
                                                                                                    
                                                                                                    
                                                                                                    
                                                                                                    
                                                                                                    
                                                                                                    
                           
<?xpacket end="w"?></metadata>
<defs>
    <style>
      .cls-1 {
        fill: #ffc20e;
        fill-rule: evenodd;
      }
    </style>
  </defs>
  <path id="Shape_51_copy" data-name="Shape 51 copy" class="cls-1" d="M210.718,45.378q1.577-2.087,2.985-4.059h16.046L236,33.039H219.218c3.608-5.925,5.194-9.984,4.151-10.874a1.214,1.214,0,0,0-1.146-.07,14.065,14.065,0,0,0-3.826,2.295c-1.1.84-2.345,1.886-3.71,3.113-3.016,2.712-2.9,2.631-.18.31a21.732,21.732,0,0,1,3.658-2.67,3.766,3.766,0,0,1,.728-0.3,0.785,0.785,0,0,1,.724.061c0.724,0.619-.671,3.646-3.557,8.134a219.265,219.265,0,0,1-15.044,20l-0.446.535c-3.464,4.144-6.845,7.973-9.944,11.3h20.092V53.213H228.35l5.877-7.756H210.718v-0.08Zm-9.585.913a7.647,7.647,0,0,0,.956-1.927,7.825,7.825,0,0,0,.373-2.522,8.122,8.122,0,0,0-.863-3.83,7.7,7.7,0,0,0-2.472-2.76,11.445,11.445,0,0,0-3.872-1.665,21.573,21.573,0,0,0-5.06-.547H169.279L163,41.318h27.614a4.052,4.052,0,0,1,1.866.428,1.646,1.646,0,0,1,.839,1.618,1.756,1.756,0,0,1-.816,1.689,3.83,3.83,0,0,1-1.889.452H163V64.871h21.947c-2.492,2.575-7.15,7.422-10.5,9.352a6.017,6.017,0,0,1-.692.348,1.07,1.07,0,0,1-1.067.058c-1.161-.991,3.576-7.193,3.576-7.193-3.444,3.814-7.2,10.046-5.623,11.391a1.52,1.52,0,0,0,1.513-.058,12.461,12.461,0,0,0,2.337-1.345q0.531-.37,1.121-0.82a136.058,136.058,0,0,0,12.993-11.731c3.588-3.62,7.437-7.791,11.245-12.347q0.8-.958,1.575-1.911c-0.145-.166-0.294-0.327-0.448-0.476a6.769,6.769,0,0,0-2.76-1.634,6.473,6.473,0,0,0,1.563-.833,5.652,5.652,0,0,0,1.353-1.38M172.7,56.687V52.309h17.772a3.753,3.753,0,0,1,2.286.547,1.9,1.9,0,0,1,.7,1.594,2.025,2.025,0,0,1-.7,1.666,3.629,3.629,0,0,1-2.286.571H172.7Z" transform="translate(-163 -22)"/>
</svg>
